<svg xmlns="http://www.w3.org/2000/svg" style="display: none;">
  <symbol id="icon-inbox" viewBox="0 0 14 14">
    <desc>Line Arrow Inbox Window 1 Streamline Icon: https://streamlinehq.com</desc>
    <g id="Free Gradient/Interface Essential/calendar-star--calendar-date-day-favorite-like-month-star">
      <path id="Union" fill="url(#paint0_linear_14402_8030)" fill-rule="evenodd" d="M11.5 13.4999c1.1046 0 2-.8954 2-2V2.49994c0-1.10457-.8954-2.000001-2-2.000001h-9c-1.10457 0-2 .895431-2 2.000001v2.5c0 .55228.447715 1 1 1 .55229 0 1-.44772 1-1v-2.5h9v8.99996H9c-.55228 0-1 .4478-1 1 0 .5523.44772 1 1 1h2.5Zm-6-2H3.91421l3.7929-3.79285c.39052-.39053.39052-1.02369 0-1.41422-.39053-.39052-1.02369-.39052-1.41422 0L2.5 10.0857V8.49994c0-.55229-.44772-1-1-1-.552285 0-1 .44771-1 1v3.99996c0 .5523.447715 1 1 1h4c.55228 0 1-.4477 1-1 0-.5522-.44772-1-1-1Z" clip-rule="evenodd">
      </path>
    </g>
    <defs>
      <linearGradient id="paint0_linear_14402_8030" x1="1" x2="15.816" y1="1.55" y2="9.901" gradientUnits="userSpaceOnUse">
        <stop stop-color="#00d078"></stop>
        <stop offset="1" stop-color="#007df0"></stop>
      </linearGradient>
    </defs>
  </symbol>

  <symbol id="icon-calendar-star" viewBox="0 0 14 14">
    <desc>Calendar Star Streamline Icon: https://streamlinehq.com</desc>
    <g id="Free Gradient/Interface Essential/calendar-star--calendar-date-day-favorite-like-month-star">
      <path id="Subtract" fill="url(#paint0_linear_14402_9395)" fill-rule="evenodd" d="M4.5 1.5c0-.552285-.44772-1-1-1s-1 .447715-1 1v1H2C1.17157 2.5.5 3.17157.5 4v8c0 .8284.67157 1.5 1.5 1.5h10c.8284 0 1.5-.6716 1.5-1.5V4c0-.82843-.6716-1.5-1.5-1.5h-.5v-1c0-.552285-.4477-1-1-1-.55229 0-1 .447715-1 1v1h-5v-1Zm3.51024 5.19304L7.2385 5.14059c-.02232-.04312-.05626-.07914-.09799-.10397-.04172-.02484-.08956-.03751-.13811-.03657-.04855.00093-.09587.01543-.13661.04185-.04073.02642-.07327.06372-.09392.10766l-.77174 1.55245c-.01725.03927-.04462.07325-.0793.09847-.03469.02523-.07545.04079-.11812.04511l-1.71398.25127c-.04715.00764-.0913.02811-.12759.05917-.0363.03107-.06334.07152-.07817.11694-.01483.04541-.01687.09403-.0059.14052.01097.0465.03452.08908.06808.12308l1.2653 1.21145c.02614.03217.04392.07031.05175.11102.00783.04071.00546.08272-.00688.12229l-.28716 1.70497c-.01034.0493-.00616.1005.01204.1475.01819.0469.04962.0876.09046.1171.04085.0294.08936.0464.13966.0488.0503.0024.10022-.0098.14371-.0352l1.52553-.8076c.03948-.0179.0823-.0271.12563-.0271.04332 0 .08615.0092.12563.0271l1.52553.8076c.04349.0254.09341.0376.1437.0352.0503-.0024.09881-.0194.13966-.0488.04085-.0295.07227-.0702.09047-.1171.01819-.047.02238-.0982.01204-.1475l-.24229-1.70497c-.01887-.03599-.02873-.07602-.02873-.11665 0-.04064.00986-.08067.02873-.11666l1.26527-1.20248c.0362-.03364.0621-.07689.0746-.12469.0125-.0478.0112-.09818-.0039-.14525-.015-.04706-.0432-.08886-.0811-.12052-.038-.03165-.08416-.05185-.13316-.05822l-1.71398-.26024c-.04267-.00432-.08343-.01989-.11811-.04511-.03469-.02523-.06205-.05921-.07931-.09847Z" clip-rule="evenodd">
      </path>
    </g>
    <defs>
      <linearGradient id="paint0_linear_14402_9395" x1="1" x2="15.816" y1="1.551" y2="9.901" gradientUnits="userSpaceOnUse">
        <stop stop-color="#ff007a"></stop>
        <stop offset="1" stop-color="#ffd600"></stop>
      </linearGradient>
    </defs>
  </symbol>

  <symbol id="icon-blank-calendar" viewBox="0 0 14 14">
    <desc>Blank Calendar Streamline Icon: https://streamlinehq.com</desc>
    <g id="Free Gradient/Interface Essential/blank-calendar--blank-calendar-date-day-month-empty">
      <path id="Union" fill="url(#paint0_linear_14402_9277)" fill-rule="evenodd" d="M3.5.5c.55228 0 1 .447715 1 1v1h5v-1c0-.552285.44771-1 1-1 .5523 0 1 .447715 1 1v1h.5c.8284 0 1.5.67157 1.5 1.5v1.375H.5V4c0-.82843.67157-1.5 1.5-1.5h.5v-1c0-.552285.44772-1 1-1ZM.5 12V6.625h13V12c0 .8284-.6716 1.5-1.5 1.5H2c-.82843 0-1.5-.6716-1.5-1.5Z" clip-rule="evenodd"></path>
    </g>
    <defs>
      <linearGradient id="paint0_linear_14402_9277" x1="2.625" x2="13.125" y1="3" y2="8.818" gradientUnits="userSpaceOnUse">
        <stop stop-color="#ffd600"></stop>
        <stop offset="1" stop-color="#00d078"></stop>
      </linearGradient>
    </defs>
  </symbol>

</svg>